{"title":"Non-Stop (2014) BDRip 720p x264 Dual Audio [Hindi-Eng] YsB TeaM","uid":10415967,"size":1002875445,"categoryP":"video","categoryS":"hd___movies","magnet":"?xt=urn:btih:9a496d6ac069efe86b481747d53878094417cb7d&amp;dn=Non-Stop+%282014%29+BDRip+720p+x264+Dual+Audio+%5BHindi-Eng%5D+YsB+TeaM+&amp;tr=udp%3A%2F%2Ftracker.openbittorrent.com%3A80&amp;tr=udp%3A%2F%2Fopen.demonii.com%3A1337&amp;tr=udp%3A%2F%2Ftracker.coppersurfer.tk%3A6969&amp;tr=udp%3A%2F%2Fexodus.desync.com%3A6969","seeders":7,"leechers":0,"uploader":"Dj_YsB","files":9,"time":1403583255,"description":"Non-Stop (2014) BDRip 720p x264 Dual Audio DD 5.1 Ch.[Hindi-Eng] YsB TeaM SSX\n &lt;a href=&quot;\nhttp://i.imgur.com/SCXT0jK.jpg&quot; rel=&quot;nofollow&quot; target=&quot;_NEW&quot;&gt;\nhttp://i.imgur.com/SCXT0jK.jpg&lt;/a&gt;\n\nInfo:\nGeneral\nComplete name                            : Non-Stop (2014) BDRip 720p x264 Dual Audio DD 5.1 Ch.[Hindi-Eng] YsB TeaM SSX.mkv\nFormat                                   : Matroska\nFile size                                : 942 MiB\nDuration                                 : 1h 46mn\nOverall bit rate                         : 1 235 Kbps\nMovie name                               : Non-Stop (2014) BDRip 720p x264 Dual Audio [Hindi-Eng] YsB TeaM SSX\nDURATION                                 : 01:38:30.863000000\n\nVideo\nID                                       : 1\nFormat                                   : AVC\nDuration                                 : 1h 46mn\nBit rate                                 : 850 Kbps\nWidth                                    : 1 280 pixels\nHeight                                   : 528 pixels\nFrame rate                               : 23.976 fps\nStream size                              : 630 MiB (67%)\nTitle                                    : YsB TeaM SSX\nAudio #1\nID                                       : 2\nFormat                                   : AC-3\nDuration                                 : 1h 46mn\nBit rate                                 : 192 Kbps\nChannel(s)                               : 6 channels\nChannel positions                        : Front: L C R, Side: L R, LFE\nSampling rate                            : 48.0 KHz\nStream size                              : 146 MiB (16%)\nTitle                                    : YsB TeaM SSX\nLanguage                                 : Hindi\n\nAudio #2\nID                                       : 3\nFormat                                   : AC-3\nDuration                                 : 1h 46mn\nBit rate                                 : 192 Kbps\nChannel(s)                               : 6 channels\nChannel positions                        : Front: L C R, Side: L R, LFE\nSampling rate                            : 48.0 KHz\nStream size                              : 146 MiB (16%)\nTitle                                    : YsB TeaM SSX\nLanguage                                 : English\n\nText #1\nID                                       : 4\nFormat                                   : UTF-8\nCodec ID                                 : S_TEXT/UTF8\nCodec ID/Info                            : UTF-8 Plain Text\nTitle                                    : YsB TeaM SSX\nLanguage                                 : English\nDefault                                  : No\nForced                                   : No\n\nText #2\nID                                       : 5\nFormat                                   : UTF-8\nCodec ID                                 : S_TEXT/UTF8\nCodec ID/Info                            : UTF-8 Plain Text\nTitle                                    : YsB TeaM SSX SDH\nLanguage                                 : English\nDefault                                  : No\nForced                                   : No\n\nMenu\n00:00:00.000                             : en:00:00:00.000\n00:04:24.639                             : en:00:04:24.639\n00:10:29.045                             : en:00:10:29.045\n00:14:47.053                             : en:00:14:47.053\n00:18:51.839                             : en:00:18:51.839\n00:24:22.127                             : en:00:24:22.127\n00:29:44.574                             : en:00:29:44.574\n00:35:48.605                             : en:00:35:48.605\n00:39:28.491                             : en:00:39:28.491\n00:45:41.572                             : en:00:45:41.572\n00:49:03.941                             : en:00:49:03.941\n00:55:17.731                             : en:00:55:17.731\n01:01:59.257                             : en:01:01:59.257\n01:08:42.327                             : en:01:08:42.327\n01:12:16.999                             : en:01:12:16.999\n01:18:14.982                             : en:01:18:14.982\n01:26:02.032                             : en:01:26:02.032\n01:30:46.191                             : en:01:30:46.191\n01:36:14.727                             : en:01:36:14.727\n01:40:13.799                             : en:01:40:13.799\n\n\nScreenShot: &lt;a href=&quot;\nhttp://i.imgur.com/FEIVKmr.jpg&quot; rel=&quot;nofollow&quot; target=&quot;_NEW&quot;&gt;\nhttp://i.imgur.com/FEIVKmr.jpg&lt;/a&gt; &lt;a href=&quot;\nhttp://i.imgur.com/6AHn0r0.jpg&quot; rel=&quot;nofollow&quot; target=&quot;_NEW&quot;&gt;\nhttp://i.imgur.com/6AHn0r0.jpg&lt;/a&gt; &lt;a href=&quot;\nhttp://i.imgur.com/otMZ7vV.jpg&quot; rel=&quot;nofollow&quot; target=&quot;_NEW&quot;&gt;\nhttp://i.imgur.com/otMZ7vV.jpg&lt;/a&gt;\n\nThanks\nGPsoft, HDDR...\nTeaM SSX - Maverick Dude, Hari, Hemkumar, Sajan...","torrent":{"xt":"urn:btih:9a496d6ac069efe86b481747d53878094417cb7d","amp;dn":"Non-Stop+%282014%29+BDRip+720p+x264+Dual+Audio+%5BHindi-Eng%5D+YsB+TeaM+","amp;tr":["udp%3A%2F%2Ftracker.openbittorrent.com%3A80","udp%3A%2F%2Fopen.demonii.com%3A1337","udp%3A%2F%2Ftracker.coppersurfer.tk%3A6969","udp%3A%2F%2Fexodus.desync.com%3A6969"],"infoHash":"9a496d6ac069efe86b481747d53878094417cb7d","infoHashBuffer":{"type":"Buffer","data":[154,73,109,106,192,105,239,232,107,72,23,71,213,56,120,9,68,23,203,125]},"announce":[],"urlList":[]}}